<?xml version="1.0" encoding="UTF-8" standalone="no"?>
<svg
   xmlns:dc="http://purl.org/dc/elements/1.1/"
   xmlns:cc="http://creativecommons.org/ns#"
   xmlns:rdf="http://www.w3.org/1999/02/22-rdf-syntax-ns#"
   xmlns:svg="http://www.w3.org/2000/svg"
   xmlns="http://www.w3.org/2000/svg"
   xmlns:sodipodi="http://sodipodi.sourceforge.net/DTD/sodipodi-0.dtd"
   xmlns:inkscape="http://www.inkscape.org/namespaces/inkscape"
   viewBox="0 0 690 909.99998"
   version="1.1"
   id="svg5150"
   sodipodi:docname="lamp_sadow01.svg"
   inkscape:version="0.92.4 (5da689c313, 2019-01-14)"
   width="690"
   height="910">
  <metadata
     id="metadata5154">
    <rdf:RDF>
      <cc:Work
         rdf:about="">
        <dc:format>image/svg+xml</dc:format>
        <dc:type
           rdf:resource="http://purl.org/dc/dcmitype/StillImage" />
        <dc:title>Asset 1</dc:title>
      </cc:Work>
    </rdf:RDF>
  </metadata>
  <sodipodi:namedview
     pagecolor="#ffffff"
     bordercolor="#666666"
     borderopacity="1"
     objecttolerance="10"
     gridtolerance="10"
     guidetolerance="10"
     inkscape:pageopacity="0"
     inkscape:pageshadow="2"
     inkscape:window-width="1920"
     inkscape:window-height="1025"
     id="namedview5152"
     showgrid="false"
     inkscape:zoom="0.41895259"
     inkscape:cx="717.34274"
     inkscape:cy="617.46069"
     inkscape:window-x="1912"
     inkscape:window-y="-7"
     inkscape:window-maximized="1"
     inkscape:current-layer="svg5150" />
  <defs
     id="defs5136">
    <style
       id="style5134">.cls-1{fill:#f1f2f2;}</style>
    <filter
       inkscape:collect="always"
       style="color-interpolation-filters:sRGB"
       id="filter6707"
       x="-0.055100527"
       width="1.1102011"
       y="-0.042520586"
       height="1.0850412">
      <feGaussianBlur
         inkscape:collect="always"
         stdDeviation="28.228"
         id="feGaussianBlur6709" />
    </filter>
  </defs>
  <title
     id="title5138">Asset 1</title>
  <g
     id="Layer_2"
     data-name="Layer 2"
     transform="matrix(0.55442019,0,0,0.55442019,11.502869,22.068654)"
     style="opacity:0.88999999;fill:#003380;stroke:#005ae1;stroke-width:2.34479189;stroke-miterlimit:4;stroke-dasharray:none;stroke-opacity:0.94418604;filter:url(#filter6707)">
    <g
       id="Layer_3"
       data-name="Layer 3"
       style="fill:#003380;stroke:#005ae1;stroke-width:2.34479189;stroke-miterlimit:4;stroke-dasharray:none;stroke-opacity:0.94418604">
      <rect
         class="cls-1"
         x="503.94"
         y="1394.26"
         width="272.51999"
         height="60"
         rx="30"
         id="rect5140"
         style="fill:#003380;stroke:#005ae1;stroke-width:2.34479189;stroke-miterlimit:4;stroke-dasharray:none;stroke-opacity:0.94418604" />
      <rect
         class="cls-1"
         x="503.94"
         y="1463.77"
         width="272.51999"
         height="60"
         rx="30"
         id="rect5142"
         style="fill:#003380;stroke:#005ae1;stroke-width:2.34479189;stroke-miterlimit:4;stroke-dasharray:none;stroke-opacity:0.94418604" />
      <rect
         class="cls-1"
         x="590.78998"
         y="1533.28"
         width="98.809998"
         height="60"
         rx="30"
         id="rect5144"
         style="fill:#003380;stroke:#005ae1;stroke-width:2.34479189;stroke-miterlimit:4;stroke-dasharray:none;stroke-opacity:0.94418604" />
      <path
         class="cls-1"
         d="m 1169.5,291.28 h -40 a 60.2,60.2 0 0 0 -59.58,53 h -65.57 a 90.22,90.22 0 0 0 -40,-67.91 l 62.8,-67.07 a 40.2,40.2 0 0 0 7.24,0.67 h 40 a 40.12,40.12 0 0 0 40,-40 v 0 a 40.12,40.12 0 0 0 -40,-40 h -40 a 40.12,40.12 0 0 0 -40,40 v 0 a 40.06,40.06 0 0 0 18.73,33.83 l -61.37,65.54 a 89.28,89.28 0 0 0 -37.13,-8.06 h -32 L 868.33,120 h 6.92 a 60.18,60.18 0 0 0 60,-60 v 0 a 60.18,60.18 0 0 0 -60,-60 h -40 a 60.18,60.18 0 0 0 -60,60 v 0 a 60.18,60.18 0 0 0 60,60 h 19 l 14.25,141.28 h -13.88 a 89.36,89.36 0 0 0 -50.83,15.84 L 722.7,211.74 a 59.79,59.79 0 0 0 17,-41.77 v 0 a 60.18,60.18 0 0 0 -60,-60 h -40 a 60.18,60.18 0 0 0 -60,60 v 0 a 60.18,60.18 0 0 0 60,60 h 40 a 59.52,59.52 0 0 0 31.84,-9.22 l 81.09,65.39 a 89.88,89.88 0 0 0 -28,61.42 l -66.07,1.8 a 30.12,30.12 0 0 0 -28.89,-21.93 h -20 a 30.09,30.09 0 0 0 -30,30 v 0 a 30.09,30.09 0 0 0 30,30 h 20 a 30.12,30.12 0 0 0 29.41,-24.07 l 66.06,-1.81 a 90.29,90.29 0 0 0 3.35,16 204.14,204.14 0 0 0 -88.14,167.92 v 779.27 h -31.6 V 621.37 a 88.73,88.73 0 0 0 -48.66,-79.1 30.08,30.08 0 0 0 -30,-29.54 h -20 a 30.09,30.09 0 0 0 -30,30 v 0 a 30.09,30.09 0 0 0 30,30 h 20 a 30,30 0 0 0 23.4,-11.3 68.69,68.69 0 0 1 35.24,59.94 v 703.38 h -26 V 754.51 a 217.68,217.68 0 0 0 -64.17,-154.93 221.73,221.73 0 0 0 -38.1,-30.52 89.22,89.22 0 0 0 3.18,-23.65 v 0 a 90.12,90.12 0 0 0 -39.69,-74.52 l 23.27,-24.54 a 39.44,39.44 0 0 0 7.58,0.74 h 40 a 40.12,40.12 0 0 0 40,-40 v 0 a 40.12,40.12 0 0 0 -40,-40 h -40 a 40.12,40.12 0 0 0 -40,40 v 0 a 40,40 0 0 0 18.45,33.64 l -21.85,23 a 89.18,89.18 0 0 0 -37.76,-8.37 H 392.6 l 1.8,-88.72 h 14.21 a 60.18,60.18 0 0 0 60,-60 v 0 a 60.18,60.18 0 0 0 -60,-60 h -40 a 60.18,60.18 0 0 0 -60,60 v 0 a 60.18,60.18 0 0 0 60,60 h 11.78 l -1.8,88.72 h -24.82 a 89.27,89.27 0 0 0 -43.64,11.37 l -73.79,-69.19 a 90,90 0 0 0 34.41,-70.65 v 0 c 0,-49.5 -40.5,-90 -90,-90 h -60 c -49.5,0 -90,40.5 -90,90 v 0 c 0,49.5 40.49,90 90,90 h 60 a 89.12,89.12 0 0 0 43.63,-11.37 l 73.8,69.19 a 90,90 0 0 0 -34.37,68 l -104.19,3.75 A 60.19,60.19 0 0 0 100,493.11 H 60 a 60.18,60.18 0 0 0 -60,60 v 0 a 60.18,60.18 0 0 0 60,60 h 40 a 60.21,60.21 0 0 0 59.53,-52.61 l 105,-3.78 a 90.37,90.37 0 0 0 40.17,64 L 255,674.49 a 39.8,39.8 0 0 0 -6.87,-0.61 h -40 a 40.12,40.12 0 0 0 -40,40 v 0 a 40.12,40.12 0 0 0 40,40 h 40 a 40.12,40.12 0 0 0 40,-40 v 0 a 40.07,40.07 0 0 0 -19,-34 l 48.24,-52.21 a 89.18,89.18 0 0 0 36.45,7.76 h 25.28 l 1.73,66.79 h -2.22 a 30.09,30.09 0 0 0 -30,30 v 0 a 30.09,30.09 0 0 0 30,30 h 20 a 30.09,30.09 0 0 0 30,-30 v 0 a 30.09,30.09 0 0 0 -30,-30 h -3.77 l -1.74,-66.79 h 20.67 a 90.23,90.23 0 0 0 79.16,-47.32 199.09,199.09 0 0 1 89.93,166.42 v 570.24 h -32 v -349 a 102.09,102.09 0 0 0 -62,-93.77 30.09,30.09 0 0 0 -29.94,-28.15 h -20 a 30.09,30.09 0 0 0 -30,30 v 0 a 30.09,30.09 0 0 0 30,30 h 20 a 30,30 0 0 0 24.29,-12.46 82,82 0 0 1 47.64,74.38 v 349.11 a 30.1,30.1 0 0 0 -26.92,29.84 v 0 a 30.09,30.09 0 0 0 30,30 h 212.53 a 30.09,30.09 0 0 0 30,-30 v 0 a 30.09,30.09 0 0 0 -30,-30 h -0.08 V 824 a 64.45,64.45 0 0 1 31.37,-55.27 30,30 0 0 0 23,10.85 h 20 a 30.09,30.09 0 0 0 30,-30 v 0 a 30.09,30.09 0 0 0 -30,-30 h -20 a 30.09,30.09 0 0 0 -30,30 v 0 0.1 A 84.49,84.49 0 0 0 726.38,824 v 500.78 h -26 v -779.3 a 184.07,184.07 0 0 1 76.33,-149.22 90.21,90.21 0 0 0 77.87,45 h 11.23 L 856,516.91 h -20.75 a 60.18,60.18 0 0 0 -60,60 v 0 a 60.18,60.18 0 0 0 60,60 h 40 a 60.18,60.18 0 0 0 60,-60 v 0 a 60.18,60.18 0 0 0 -60,-60 h -5.13 L 880,441.28 h 34.66 A 89.26,89.26 0 0 0 954.29,432 l 57.71,58.58 a 40,40 0 0 0 -17.59,33.08 v 0 a 40.12,40.12 0 0 0 40,40 h 40 a 40.12,40.12 0 0 0 40,-40 v 0 a 40.12,40.12 0 0 0 -40,-40 h -40 a 39.56,39.56 0 0 0 -8.63,1 l -59.11,-60 a 90.21,90.21 0 0 0 37.7,-66.32 h 65.57 a 60.2,60.2 0 0 0 59.58,53 h 40 a 60.18,60.18 0 0 0 60,-60 v 0 a 60.18,60.18 0 0 0 -60.02,-60.06 z"
         id="path5146"
         inkscape:connector-curvature="0"
         style="fill:#003380;stroke:#005ae1;stroke-width:2.34479189;stroke-miterlimit:4;stroke-dasharray:none;stroke-opacity:0.94418604" />
    </g>
  </g>
  <g
     id="Layer_2-7"
     data-name="Layer 2"
     transform="matrix(0.55442019,0,0,0.55442019,-1.5966314,12.074194)"
     style="fill:#e6e6e6;stroke:#000080;stroke-width:1.69546497;stroke-miterlimit:4;stroke-dasharray:none">
    <g
       id="Layer_3-2"
       data-name="Layer 3"
       style="fill:#e6e6e6;stroke:#000080;stroke-width:1.69546497;stroke-miterlimit:4;stroke-dasharray:none">
      <rect
         class="cls-1"
         x="503.94"
         y="1394.26"
         width="272.51999"
         height="60"
         rx="30"
         id="rect5140-9"
         style="fill:#e6e6e6;stroke:#000080;stroke-width:1.69546497;stroke-miterlimit:4;stroke-dasharray:none" />
      <rect
         class="cls-1"
         x="503.94"
         y="1463.77"
         width="272.51999"
         height="60"
         rx="30"
         id="rect5142-1"
         style="fill:#e6e6e6;stroke:#000080;stroke-width:1.69546497;stroke-miterlimit:4;stroke-dasharray:none" />
      <rect
         class="cls-1"
         x="590.78998"
         y="1533.28"
         width="98.809998"
         height="60"
         rx="30"
         id="rect5144-5"
         style="fill:#e6e6e6;stroke:#000080;stroke-width:1.69546497;stroke-miterlimit:4;stroke-dasharray:none" />
      <path
         class="cls-1"
         d="m 1169.5,291.28 h -40 a 60.2,60.2 0 0 0 -59.58,53 h -65.57 a 90.22,90.22 0 0 0 -40,-67.91 l 62.8,-67.07 a 40.2,40.2 0 0 0 7.24,0.67 h 40 a 40.12,40.12 0 0 0 40,-40 v 0 a 40.12,40.12 0 0 0 -40,-40 h -40 a 40.12,40.12 0 0 0 -40,40 v 0 a 40.06,40.06 0 0 0 18.73,33.83 l -61.37,65.54 a 89.28,89.28 0 0 0 -37.13,-8.06 h -32 L 868.33,120 h 6.92 a 60.18,60.18 0 0 0 60,-60 v 0 a 60.18,60.18 0 0 0 -60,-60 h -40 a 60.18,60.18 0 0 0 -60,60 v 0 a 60.18,60.18 0 0 0 60,60 h 19 l 14.25,141.28 h -13.88 a 89.36,89.36 0 0 0 -50.83,15.84 L 722.7,211.74 a 59.79,59.79 0 0 0 17,-41.77 v 0 a 60.18,60.18 0 0 0 -60,-60 h -40 a 60.18,60.18 0 0 0 -60,60 v 0 a 60.18,60.18 0 0 0 60,60 h 40 a 59.52,59.52 0 0 0 31.84,-9.22 l 81.09,65.39 a 89.88,89.88 0 0 0 -28,61.42 l -66.07,1.8 a 30.12,30.12 0 0 0 -28.89,-21.93 h -20 a 30.09,30.09 0 0 0 -30,30 v 0 a 30.09,30.09 0 0 0 30,30 h 20 a 30.12,30.12 0 0 0 29.41,-24.07 l 66.06,-1.81 a 90.29,90.29 0 0 0 3.35,16 204.14,204.14 0 0 0 -88.14,167.92 v 779.27 h -31.6 V 621.37 a 88.73,88.73 0 0 0 -48.66,-79.1 30.08,30.08 0 0 0 -30,-29.54 h -20 a 30.09,30.09 0 0 0 -30,30 v 0 a 30.09,30.09 0 0 0 30,30 h 20 a 30,30 0 0 0 23.4,-11.3 68.69,68.69 0 0 1 35.24,59.94 v 703.38 h -26 V 754.51 a 217.68,217.68 0 0 0 -64.17,-154.93 221.73,221.73 0 0 0 -38.1,-30.52 89.22,89.22 0 0 0 3.18,-23.65 v 0 a 90.12,90.12 0 0 0 -39.69,-74.52 l 23.27,-24.54 a 39.44,39.44 0 0 0 7.58,0.74 h 40 a 40.12,40.12 0 0 0 40,-40 v 0 a 40.12,40.12 0 0 0 -40,-40 h -40 a 40.12,40.12 0 0 0 -40,40 v 0 a 40,40 0 0 0 18.45,33.64 l -21.85,23 a 89.18,89.18 0 0 0 -37.76,-8.37 H 392.6 l 1.8,-88.72 h 14.21 a 60.18,60.18 0 0 0 60,-60 v 0 a 60.18,60.18 0 0 0 -60,-60 h -40 a 60.18,60.18 0 0 0 -60,60 v 0 a 60.18,60.18 0 0 0 60,60 h 11.78 l -1.8,88.72 h -24.82 a 89.27,89.27 0 0 0 -43.64,11.37 l -73.79,-69.19 a 90,90 0 0 0 34.41,-70.65 v 0 c 0,-49.5 -40.5,-90 -90,-90 h -60 c -49.5,0 -90,40.5 -90,90 v 0 c 0,49.5 40.49,90 90,90 h 60 a 89.12,89.12 0 0 0 43.63,-11.37 l 73.8,69.19 a 90,90 0 0 0 -34.37,68 l -104.19,3.75 A 60.19,60.19 0 0 0 100,493.11 H 60 a 60.18,60.18 0 0 0 -60,60 v 0 a 60.18,60.18 0 0 0 60,60 h 40 a 60.21,60.21 0 0 0 59.53,-52.61 l 105,-3.78 a 90.37,90.37 0 0 0 40.17,64 L 255,674.49 a 39.8,39.8 0 0 0 -6.87,-0.61 h -40 a 40.12,40.12 0 0 0 -40,40 v 0 a 40.12,40.12 0 0 0 40,40 h 40 a 40.12,40.12 0 0 0 40,-40 v 0 a 40.07,40.07 0 0 0 -19,-34 l 48.24,-52.21 a 89.18,89.18 0 0 0 36.45,7.76 h 25.28 l 1.73,66.79 h -2.22 a 30.09,30.09 0 0 0 -30,30 v 0 a 30.09,30.09 0 0 0 30,30 h 20 a 30.09,30.09 0 0 0 30,-30 v 0 a 30.09,30.09 0 0 0 -30,-30 h -3.77 l -1.74,-66.79 h 20.67 a 90.23,90.23 0 0 0 79.16,-47.32 199.09,199.09 0 0 1 89.93,166.42 v 570.24 h -32 v -349 a 102.09,102.09 0 0 0 -62,-93.77 30.09,30.09 0 0 0 -29.94,-28.15 h -20 a 30.09,30.09 0 0 0 -30,30 v 0 a 30.09,30.09 0 0 0 30,30 h 20 a 30,30 0 0 0 24.29,-12.46 82,82 0 0 1 47.64,74.38 v 349.11 a 30.1,30.1 0 0 0 -26.92,29.84 v 0 a 30.09,30.09 0 0 0 30,30 h 212.53 a 30.09,30.09 0 0 0 30,-30 v 0 a 30.09,30.09 0 0 0 -30,-30 h -0.08 V 824 a 64.45,64.45 0 0 1 31.37,-55.27 30,30 0 0 0 23,10.85 h 20 a 30.09,30.09 0 0 0 30,-30 v 0 a 30.09,30.09 0 0 0 -30,-30 h -20 a 30.09,30.09 0 0 0 -30,30 v 0 0.1 A 84.49,84.49 0 0 0 726.38,824 v 500.78 h -26 v -779.3 a 184.07,184.07 0 0 1 76.33,-149.22 90.21,90.21 0 0 0 77.87,45 h 11.23 L 856,516.91 h -20.75 a 60.18,60.18 0 0 0 -60,60 v 0 a 60.18,60.18 0 0 0 60,60 h 40 a 60.18,60.18 0 0 0 60,-60 v 0 a 60.18,60.18 0 0 0 -60,-60 h -5.13 L 880,441.28 h 34.66 A 89.26,89.26 0 0 0 954.29,432 l 57.71,58.58 a 40,40 0 0 0 -17.59,33.08 v 0 a 40.12,40.12 0 0 0 40,40 h 40 a 40.12,40.12 0 0 0 40,-40 v 0 a 40.12,40.12 0 0 0 -40,-40 h -40 a 39.56,39.56 0 0 0 -8.63,1 l -59.11,-60 a 90.21,90.21 0 0 0 37.7,-66.32 h 65.57 a 60.2,60.2 0 0 0 59.58,53 h 40 a 60.18,60.18 0 0 0 60,-60 v 0 a 60.18,60.18 0 0 0 -60.02,-60.06 z"
         id="path5146-5"
         inkscape:connector-curvature="0"
         style="fill:#e6e6e6;stroke:#000080;stroke-width:1.69546497;stroke-miterlimit:4;stroke-dasharray:none" />
    </g>
  </g>
</svg>
